$MeshFormat
4.1 0 8
$EndMeshFormat
$PhysicalNames
4
2 6 "LEFT_WALL"
2 7 "LEFT_INLET"
2 8 "RIGHT"
2 9 "WALL"
$EndPhysicalNames
$Entities
3 4 5 1
2 1 0.5000000000000001 1 0 
3 0 0.5000000000000001 1 0 
4 -4.440892098500626e-17 0.5 0.4 0 
1 -1.000000000666134e-07 0.3999999 0.3999999 9.999999995559108e-08 0.6000000999999999 0.6000000999999999 0 2 4 -4 
2 0.9999999000000001 -9.999999994736442e-08 -9.999999994736442e-08 1.0000001 1.0000001 1.0000001 0 2 2 -2 
3 -9.999999994736442e-08 0.4999999000000001 0.9999999000000001 1.0000001 0.5000001000000001 1.0000001 0 2 3 -2 
4 -1e-07 -9.999999994736442e-08 -9.999999994736442e-08 1e-07 1.0000001 1.0000001 0 2 3 -3 
1 -9.999999994736442e-08 -9.999999994736442e-08 -9.999999994736442e-08 1.0000001 1.0000001 1.0000001 1 9 4 -2 -3 4 3 
2 0.9999999000000001 -9.999999994736442e-08 -9.999999994736442e-08 1.0000001 1.0000001 1.0000001 1 8 1 2 
3 -1e-07 -9.999999994736442e-08 -9.999999994736442e-08 1e-07 1.0000001 1.0000001 0 1 4 
4 -1.000000000666134e-07 -9.999999994736442e-08 -9.999999994736442e-08 1e-07 1.0000001 1.0000001 1 6 2 4 -1 
5 -1.000000000666134e-07 0.3999999 0.3999999 9.999999995559108e-08 0.6000000999999999 0.6000000999999999 1 7 1 1 
1 -9.999999994736442e-08 -9.999999994736442e-08 -9.999999994736442e-08 1.0000001 1.0000001 1.0000001 0 3 1 2 -3 
$EndEntities
$Nodes
13 321 1 321
0 2 0 1
1
1 0.5000000000000001 1
0 3 0 1
2
0 0.5000000000000001 1
0 4 0 1
3
-4.440892098500626e-17 0.5 0.4
1 1 1 6
4
5
6
7
8
9
-4.858902389483241e-17 0.5781831482468031 0.4376510198141267 0.8975979010256565
-5.798162987465179e-17 0.5974927912181823 0.5222520933956316 1.795195802051313
-6.551391504741511e-17 0.5433883739117554 0.5900968867902421 2.69279370307697
-6.551391504741505e-17 0.4566116260882435 0.5900968867902415 3.590391604102629
-5.79816298746517e-17 0.4025072087818175 0.5222520933956308 4.487989505128282
-4.858902389483238e-17 0.4218168517531972 0.4376510198141265 5.385587406153934
1 2 1 18
10
11
12
13
14
15
16
17
18
19
20
21
22
23
24
25
26
27
1 0.3376502653976581 0.9729086208503173 0.330693963535768
1 0.1928936436551659 0.8945702546981966 0.661387927071536
1 0.08141676086873556 0.7734740790612131 0.9920818906073038
1 0.0152998670303347 0.6227427435703993 1.322775854143071
1 0.001707753496665132 0.4587103272638334 1.653469817678839
1 0.04211333667247141 0.299152287673515 1.984163781214607
1 0.1321380446634347 0.1613592141871289 2.314857744750376
1 0.2620263034814642 0.06026312439675496 2.645551708286144
1 0.4177027048596338 0.006819348298638672 2.976245671821911
1 0.5822972951403678 0.00681934829863895 3.306939635357679
1 0.7379736965185372 0.06026312439675569 3.637633598893446
1 0.867861955336566 0.1613592141871296 3.968327562429213
1 0.9578866633275285 0.2991522876735146 4.299021525964979
1 0.9982922465033348 0.4587103272638332 4.629715489500747
1 0.9847001329696656 0.622742743570398 4.960409453036513
1 0.9185832391312656 0.7734740790612114 5.291103416572279
1 0.8071063563448354 0.8945702546981956 5.621797380108047
1 0.6623497346023427 0.972908620850317 5.952491343643817
1 3 1 5
28
29
30
31
32
0.1666666666666662 0.5000000000000001 1 0.1666666666666662
0.3333333333333324 0.5000000000000001 1 0.3333333333333324
0.4999999999999986 0.5000000000000001 1 0.4999999999999986
0.6666666666666646 0.5000000000000001 1 0.6666666666666646
0.8333333333333321 0.5000000000000001 1 0.8333333333333321
1 4 1 18
33
34
35
36
37
38
39
40
41
42
43
44
45
46
47
48
49
50
0 0.3376502653976581 0.9729086208503173 0.330693963535768
0 0.1928936436551659 0.8945702546981966 0.661387927071536
0 0.08141676086873556 0.7734740790612131 0.9920818906073038
0 0.0152998670303347 0.6227427435703993 1.322775854143071
0 0.001707753496665132 0.4587103272638334 1.653469817678839
0 0.04211333667247141 0.299152287673515 1.984163781214607
0 0.1321380446634347 0.1613592141871289 2.314857744750376
0 0.2620263034814642 0.06026312439675496 2.645551708286144
0 0.4177027048596338 0.006819348298638672 2.976245671821911
0 0.5822972951403678 0.00681934829863895 3.306939635357679
0 0.7379736965185372 0.06026312439675569 3.637633598893446
0 0.867861955336566 0.1613592141871296 3.968327562429213
0 0.9578866633275285 0.2991522876735146 4.299021525964979
0 0.9982922465033348 0.4587103272638332 4.629715489500747
0 0.9847001329696656 0.622742743570398 4.960409453036513
0 0.9185832391312656 0.7734740790612114 5.291103416572279
0 0.8071063563448354 0.8945702546981956 5.621797380108047
0 0.6623497346023427 0.972908620850317 5.952491343643817
2 1 1 114
51
52
53
54
55
56
57
58
59
60
61
62
63
64
65
66
67
68
69
70
71
72
73
74
75
76
77
78
79
80
81
82
83
84
85
86
87
88
89
90
91
92
93
94
95
96
97
98
99
100
101
102
103
104
105
106
107
108
109
110
111
112
113
114
115
116
117
118
119
120
121
122
123
124
125
126
127
128
129
130
131
132
133
134
135
136
137
138
139
140
141
142
143
144
145
146
147
148
149
150
151
152
153
154
155
156
157
158
159
160
161
162
163
164
0.8361611161828314 0.9888920724764372 0.3951928367443611 4.501208473541367 0.8361611161828314
0.1378365280317052 0.6618843384196917 0.02693186434254663 3.471302668752833 0.1378365280317052
0.1290771474901761 0.01576892282149195 0.3754196488424367 1.822609855888162 0.1290771474901761
0.1460776711041386 0.9578151148207019 0.7010107475776047 5.126112522896151 0.1460776711041386
0.8401218449090448 0.34170091437948 0.02572012535665474 2.81945163238394 0.8401218449090448
0.8539918661334059 0.04219293314565287 0.7010290763502118 1.157032748615948 0.8539918661334059
0.161444824118801 0.9888297922426121 0.3949027392552754 4.500615058397366 0.161444824118801
0.8344984327953344 0.6506987205958312 0.0232506994123855 3.447750562136417 0.8344984327953344
0.8399163752330961 0.01123310666996985 0.3946106078179073 1.783167901030809 0.8399163752330961
0.8458983012548156 0.9576479703049845 0.7013910009800041 5.126943257388255 0.8458983012548156
0.1395714056552407 0.337795701681011 0.0270414758069748 2.811206209525378 0.1395714056552407
0.1742015399162789 0.04240239672715074 0.7015054179890556 1.15599202507281 0.1742015399162789
0.5812578273135364 0.6415806519670426 0.9795361498245854 5.996096584136088 0.5812578273135364
0.4166666666666655 0.3571738624915157 0.9791666666666281 0.289686993997389 0.4166666666666655
0.7499999999999984 0.3571738624916449 0.9791666666666667 0.2896869939971194 0.7499999999999984
0.2612524538551457 0.6378381456471661 0.980625265258237 6.003892122070155 0.2612524538551457
0.1495568199610632 0.2647508205448557 0.9412004346843748 0.489855469118513 0.1495568199610632
0.846085453291765 0.750178470563645 0.9329096128136166 5.759174322407123 0.846085453291765
0.4191074008248353 0.6412354485717716 0.9796379343491615 5.996816377103939 0.4191074008248353
0.5002775785676323 0.7731983353816909 0.9187632619328887 5.705129484049323 0.5002775785676323
0.6665017304197082 0.7675159190305665 0.9224159479295632 5.718639874818944 0.6665017304197082
0.5828864220314309 0.8803405536925498 0.8245628802202196 5.418823567500382 0.5828864220314309
0.4176062233153154 0.8807557497169831 0.824075699578753 5.417543360060807 0.4176062233153154
0.5001791422949858 0.9569349811737522 0.7030035048459575 5.130469459560534 0.5001791422949858
0.3274979323286122 0.95738277299665 0.7019925715611713 5.128258121394523 0.3274979323286122
0.4134925815589578 0.9956875611182481 0.5655274122230004 4.843821886797548 0.4134925815589578
0.5815842977592892 0.9957030724597183 0.565409968307554 4.843584959171001 0.5815842977592892
0.4992237065847976 0.9940154499617967 0.4228719558199253 4.557514494825984 0.4992237065847976
0.335287591451931 0.9939916389605056 0.4227195973282132 4.557206079041902 0.335287591451931
0.4215377758670434 0.9530195944475537 0.2884031024646768 4.275421542525092 0.4215377758670434
0.5790697043133972 0.9532540942413201 0.2889058834228662 4.276531098971192 0.5790697043133972
0.4999935447281696 0.8735860367482434 0.1676846781342453 3.985389610102366 0.4999935447281696
0.3082160919997587 0.8709117598982845 0.1647024211701532 3.977378193475726 0.3082160919997587
0.4212955295279728 0.7636273671354474 0.07514636485345688 3.696959131174206 0.4212955295279728
0.6914399333181626 0.8722238204995529 0.166159577862841 3.981299832712562 0.6914399333181626
0.2524511836797956 0.8810199509931302 0.8237650335431431 5.416727723599583 0.2524511836797956
0.7455483399023261 0.8754614468593244 0.8301949453312434 5.433726838100033 0.7455483399023261
0.2528245454995183 0.996766348342375 0.5567731904562538 4.826180775911581 0.2528245454995183
0.5835805988371947 0.3573121238198782 0.9792078567711575 0.2893984610198902 0.5835805988371947
0.5002120865639035 0.2267691660634242 0.9187420582964212 0.5781334311264964 0.5002120865639035
0.3086310820078951 0.2178182008808608 0.9127631672592478 0.5996621460029401 0.3086310820078951
0.4175118647388526 0.1190600693304461 0.8238591811597681 0.8662104639654109 0.4175118647388526
0.5829749618976752 0.1191873717895736 0.8240088612915819 0.8658174751184615 0.5829749618976752
0.50039958967355 0.04301032549328859 0.7028803524106018 1.152985349998368 0.50039958967355
0.3435328240783632 0.04278933182826722 0.7023818294955297 1.154075970603907 0.3435328240783632
0.4257550387510091 0.004692300199342636 0.568339465305063 1.433688225665287 0.4257550387510091
0.5829825804489324 0.004309642893523147 0.5655062582632642 1.439406096256383 0.5829825804489324
0.5019269484704458 0.006015072111072273 0.4226767110207353 1.726066044584329 0.5019269484704458
0.3601967107544417 0.004442552481929485 0.4334957429229166 1.704200177887121 0.3601967107544417
0.4262894091180411 0.04684237225735605 0.2886988773842899 2.007110967603616 0.4262894091180411
0.5831469506252851 0.04789070312000931 0.2864650293870336 2.012046182626863 0.5831469506252851
0.501234799565115 0.1261574306547953 0.1679732942286482 2.297023406378938 0.501234799565115
0.3093179722922587 0.1289902916062873 0.1648108052493155 2.305514942408048 0.3093179722922587
0.4187968303615052 0.2356805471173586 0.07557659486331209 2.584596353082668 0.4187968303615052
0.6906541670920356 0.126773267803329 0.1672811902314592 2.298876256704224 0.6906541670920356
0.6660687737110327 0.2267004154366949 0.9186971901954023 0.5782976236376515 0.6660687737110327
0.7449184137411042 0.120719848395526 0.825801422033249 0.8611007945605096 0.7449184137411042
0.6682978463405369 0.9567789807950512 0.7033542787940157 5.131237257679915 0.6682978463405369
0.7433576575507176 0.9967425110645542 0.5569813803034047 4.826599876037629 0.7433576575507176
0.3363682667658439 0.7730431199598284 0.9188644824314932 5.705500091210153 0.3363682667658439
0.5821458769197756 0.7643592220800326 0.07560136463315531 3.698682658537813 0.5821458769197756
0.5124306090208982 0.6391748195706 0.01976009162347725 3.423668066836673 0.5124306090208982
0.6643884821606707 0.633821529155161 0.0182409333135759 3.412538667954465 0.6643884821606707
0.5838662514594581 0.493426229897703 4.321632100823258e-05 3.128444734579891 0.5838662514594581
0.4215292941187924 0.4974830394645034 6.335130471102346e-06 3.136558711258328 0.4215292941187924
0.7433821135434648 0.4950056762239416 2.494389217783111e-05 3.13160383993053 0.7433821135434648
0.6620192529603268 0.3541362330640724 0.02174926921617631 2.845560215602982 0.6620192529603268
0.66215343853208 0.9933526534199828 0.4187401737421111 4.549145259590637 0.66215343853208
0.672362904886071 0.04268086428706475 0.7021366075474057 1.154612250430338 0.672362904886071
0.7474943560969455 0.003245593339070374 0.5568775831320893 1.456794384323564 0.7474943560969455
0.6655786577316021 0.006715831884804013 0.4183254661054068 1.734880696555682 0.6655786577316021
0.8576201178148322 0.9185832391312641 0.2265259209387862 4.133674544197095 0.8576201178148322
0.142379882185102 0.9185832391312653 0.226525920938788 4.1336745441971 0.142379882185102
0.8539951772543548 0.1910713382541729 0.1068548843595633 2.475577922932287 0.8539951772543548
0.8576201178148961 0.08141676086873578 0.2265259209387865 2.14951076298249 0.8576201178148961
0.1442675581746229 0.08222821635393229 0.2252879019970485 2.152471271388113 0.1442675581746229
0.1390181868592903 0.5001254440696326 1.57362148311968e-08 3.14184354173169 0.1390181868592903
0.1433681916463884 0.8085945355572486 0.1065925615545557 3.806757787696517 0.1433681916463884
0.1348839666487518 0.001375081506518439 0.5370565872331612 1.496615136396999 0.1348839666487518
0.1540544591382575 0.140382682221744 0.8473836276423701 0.8027000771318131 0.1540544591382575
0.8576201178148319 0.8071063563448342 0.1054297453018034 3.802980580661329 0.8576201178148319
0.1442432187360763 0.1914925820030272 0.1065242408472396 2.476648943857578 0.1442432187360763
0.2673521975414194 0.5797316728344586 0.006398075016903038 3.301739672193743 0.2673521975414194
0.8455110110244474 0.2383130748375564 0.9260515851384966 0.5508055968586935 0.8455110110244474
0.1561285381706943 0.7611012687887733 0.9264107496732379 5.733753744709539 0.1561285381706943
0.2676515819681133 0.4194901754552204 0.006524399638879019 2.979868957310301 0.2676515819681133
0.5799958239141083 0.2317439540059158 0.07805368376105026 2.575294118786351 0.5799958239141083
0.5104609699038001 0.3540134015175772 0.02178674938524355 2.845303370498077 0.5104609699038001
0.7431193451039579 0.6336184228890103 0.9818154387985649 6.012660861177271 0.7431193451039579
0.2582646156570579 0.3617984022038703 0.980520882341857 0.2800494741140686 0.2582646156570579
0.2726390864571362 0.2635229768583133 0.05945645217975765 2.648952151814938 0.2726390864571362
0.2723207901536514 0.7363718908240926 0.05940003492028822 3.633994528363357 0.2723207901536514
0.2716655366017238 0.03564365971128364 0.3145999211605619 1.95066677666753 0.2716655366017238
0.7308143813769333 0.9559828295139817 0.294866728226689 4.289642663739888 0.7308143813769333
0.2691114304092624 0.9560198817279444 0.2949491100511106 4.289823325097978 0.2691114304092624
0.7308017913714407 0.04481862570856987 0.2930944261307468 1.997432831077528 0.7308017913714407
0.7244004135399511 0.754328442367721 0.06951533894596335 3.675216720058368 0.7244004135399511
0.7212165331727047 0.2337319736967043 0.07679633960875598 2.579998647163777 0.7212165331727047
0.2780085982820883 0.006334721931799014 0.5793384725706627 1.41144585089345 0.2780085982820883
0.8863092738095676 0.998292246503335 0.5412896727361649 4.795062471268629 0.8863092738095676
0.8868951482893617 0.5000000000000008 0 3.141592653589795 0.8868951482893617
0.8870991972551798 0.8678619553365673 0.8386407858128689 5.456450398340163 0.8870991972551798
0.2839932876724368 0.1063948381964973 0.808342304268549 0.906272176784193 0.2839932876724368
0.1147029552719194 0.8711067502018015 0.8350817511513537 5.446818036057927 0.1147029552719194
0.8859226324176407 0.1293558157948754 0.835593338305333 0.8349878672028238 0.8859226324176407
0.110372134012294 0.998146142807308 0.5430165131804187 4.798528493320815 0.110372134012294
0.8897192730989407 0.001854761091203749 0.5430269793559609 1.484635803588615 0.8897192730989407
0.877611465498644 0.3790868246303133 0.9851597716443723 0.2442476266525642 0.877611465498644
0.1223885345013162 0.6209131753697475 0.985159771644357 6.038937680526897 0.1223885345013162
0.8790296562982447 0.6192662399903083 0.9855672600151025 6.042330877060054 0.8790296562982447
0.1209703437017546 0.3807337600096919 0.9855672600151026 0.2408544301195324 0.1209703437017546
0.3783086647421714 0.3441345426278081 0.02491478743476194 2.824578475472132 0.3783086647421714
0.3783693448359788 0.6581970378661699 0.02568607735976208 3.463518518942322 0.3783693448359788
0.2314622267642495 0.00208564090675456 0.4543788315717077 1.662165741541306 0.2314622267642495
2 2 1 30
165
166
167
168
169
170
171
172
173
174
175
176
177
178
179
180
181
182
183
184
185
186
187
188
189
190
191
192
193
194
1 0.8494399501708703 0.5289554198058357 0.02895541980583576 -0.3494399501708703
1 0.1600918607478272 0.4139235689536476 -0.08607643104635246 0.3399081392521728
1 0.4436968852845505 0.8382930292802611 0.3382930292802611 0.05630311471544951
1 0.6138518280543157 0.1683609547109349 -0.3316390452890651 -0.1138518280543158
1 0.7935420072273018 0.3082194350187716 -0.1917805649812284 -0.2935420072273018
1 0.2846339560541857 0.2232977010816833 -0.2767022989183167 0.2153660439458142
1 0.7629727312472983 0.7393491581459763 0.2393491581459763 -0.2629727312472983
1 0.1788954796309349 0.6408495016324323 0.1408495016324323 0.3211045203690651
1 0.8812191493038088 0.4034622004321753 -0.09653779956782473 -0.3812191493038088
1 0.7418163567364836 0.441131363935021 -0.05886863606497901 -0.2418163567364836
1 0.6377245277626695 0.3136293353356407 -0.1863706646643593 -0.1377245277626695
1 0.5897230394079248 0.4809558102013784 -0.01904418979862162 -0.08972303940792478
1 0.4793298520538444 0.3750575375151127 -0.1249424624848873 0.02067014794615563
1 0.4373277508594237 0.5237954321728424 0.02379543217284245 0.06267224914057637
1 0.5417484195748379 0.6465137563159921 0.1465137563159921 -0.04174841957483785
1 0.3420259591644507 0.6795759710581405 0.1795759710581405 0.1579740408355493
1 0.61323015612842 0.8050311070337324 0.3050311070337323 -0.1132301561284201
1 0.3163154849552751 0.379250799237123 -0.120749200762877 0.1836845150447249
1 0.6968615739488886 0.5965971321421172 0.09659713214211718 -0.1968615739488886
1 0.3025618591684692 0.8282607026906414 0.3282607026906415 0.1974381408315308
1 0.2670732439058248 0.5347527225757045 0.03475272257570453 0.2329267560941752
1 0.5000000000000007 0.1067474265293143 -0.3932525734706857 -6.245004513516506e-16
1 0.4988858498006282 0.2291274792068692 -0.2708725207931308 0.001114150199371798
1 0.3824709636250809 0.1400311389833745 -0.3599688610166255 0.1175290363749191
1 0.1870585366186388 0.2953967142266196 -0.2046032857733804 0.3129414633813612
1 0.1141121058633064 0.5331018115061504 0.03310181150615046 0.3858878941366936
1 0.7374044591715294 0.1942959962405513 -0.3057040037594487 -0.2374044591715294
1 0.860130217422913 0.6579677594961788 0.1579677594961788 -0.360130217422913
1 0.3906781313319097 0.2793844495705672 -0.2206155504294328 0.1093218686680903
1 0.2082855005839036 0.7597262825978393 0.2597262825978393 0.2917144994160964
2 3 1 30
242
243
244
245
246
247
248
249
250
251
252
253
254
255
256
257
258
259
260
261
262
263
264
265
266
267
268
269
270
271
0 0.8494399501708703 0.5289554198058357 0.02895541980583576 -0.3494399501708703
0 0.1600918607478272 0.4139235689536476 -0.08607643104635246 0.3399081392521728
0 0.4436968852845505 0.8382930292802611 0.3382930292802611 0.05630311471544951
0 0.6138518280543157 0.1683609547109349 -0.3316390452890651 -0.1138518280543158
0 0.7935420072273018 0.3082194350187716 -0.1917805649812284 -0.2935420072273018
0 0.2846339560541857 0.2232977010816833 -0.2767022989183167 0.2153660439458142
0 0.7629727312472983 0.7393491581459763 0.2393491581459763 -0.2629727312472983
0 0.1788954796309349 0.6408495016324323 0.1408495016324323 0.3211045203690651
0 0.8812191493038088 0.4034622004321753 -0.09653779956782473 -0.3812191493038088
0 0.7418163567364836 0.441131363935021 -0.05886863606497901 -0.2418163567364836
0 0.6377245277626695 0.3136293353356407 -0.1863706646643593 -0.1377245277626695
0 0.5897230394079248 0.4809558102013784 -0.01904418979862162 -0.08972303940792478
0 0.4793298520538444 0.3750575375151127 -0.1249424624848873 0.02067014794615563
0 0.4373277508594237 0.5237954321728424 0.02379543217284245 0.06267224914057637
0 0.5417484195748379 0.6465137563159921 0.1465137563159921 -0.04174841957483785
0 0.3420259591644507 0.6795759710581405 0.1795759710581405 0.1579740408355493
0 0.61323015612842 0.8050311070337324 0.3050311070337323 -0.1132301561284201
0 0.3163154849552751 0.379250799237123 -0.120749200762877 0.1836845150447249
0 0.6968615739488886 0.5965971321421172 0.09659713214211718 -0.1968615739488886
0 0.3025618591684692 0.8282607026906414 0.3282607026906415 0.1974381408315308
0 0.2670732439058248 0.5347527225757045 0.03475272257570453 0.2329267560941752
0 0.5000000000000007 0.1067474265293143 -0.3932525734706857 -6.245004513516506e-16
0 0.4988858498006282 0.2291274792068692 -0.2708725207931308 0.001114150199371798
0 0.3824709636250809 0.1400311389833745 -0.3599688610166255 0.1175290363749191
0 0.1870585366186388 0.2953967142266196 -0.2046032857733804 0.3129414633813612
0 0.1141121058633064 0.5331018115061504 0.03310181150615046 0.3858878941366936
0 0.7374044591715294 0.1942959962405513 -0.3057040037594487 -0.2374044591715294
0 0.860130217422913 0.6579677594961788 0.1579677594961788 -0.360130217422913
0 0.3906781313319097 0.2793844495705672 -0.2206155504294328 0.1093218686680903
0 0.2082855005839036 0.7597262825978393 0.2597262825978393 0.2917144994160964
2 4 1 46
195
196
197
198
199
200
201
202
203
204
205
206
207
208
209
210
211
212
213
214
215
216
217
218
219
220
221
222
223
224
225
226
227
228
229
230
231
232
233
234
235
236
237
238
239
240
0 0.3332806682442138 0.4717254385174414 -0.02827456148255859 0.1667193317557863
0 0.6744858865451597 0.4637843229916919 -0.03621567700830813 -0.1744858865451598
0 0.6265880715559742 0.6060226950706017 0.1060226950706017 -0.1265880715559742
0 0.3676598362178669 0.6033441366007805 0.1033441366007805 0.1323401637821331
0 0.4184970890997322 0.334408504718253 -0.165591495281747 0.08150291090026779
0 0.5788956325500206 0.3380977129317185 -0.1619022870682814 -0.07889563255002063
0 0.4949150378930079 0.6671531433379897 0.1671531433379897 0.005084962106992036
0 0.5010689244743565 0.1439674712722557 -0.3560325287277443 -0.001068924474356422
0 0.3192066777006538 0.8171215557867721 0.3171215557867721 0.1807933222993462
0 0.6687976210956441 0.8259863853783226 0.3259863853783226 -0.1687976210956441
0 0.8095397082309219 0.3044282787353446 -0.1955717212646554 -0.3095397082309219
0 0.1924486740077366 0.3000228298195711 -0.1999771701804289 0.3075513259922634
0 0.8613145443637087 0.51033413019732 0.01033413019731996 -0.3613145443637087
0 0.1386854556362919 0.5103341301973203 0.01033413019732035 0.3613145443637081
0 0.8789201549789327 0.3985466407993296 -0.1014533592006705 -0.3789201549789327
0 0.7759649023878163 0.423370576509673 -0.07662942349032702 -0.2759649023878164
0 0.6842148458167965 0.342595510568518 -0.157404489431482 -0.1842148458167964
0 0.6057611470344727 0.2335051911427776 -0.2664948088572224 -0.1057611470344727
0 0.5029140264814896 0.2722662810195777 -0.2277337189804223 -0.002914026481489603
0 0.3964899297936667 0.2225264444035076 -0.2774735555964924 0.1035100702063333
0 0.3124873348014587 0.3096773416765204 -0.1903226583234796 0.1875126651985413
0 0.2767405210286965 0.1933631207900639 -0.3066368792099361 0.2232594789713035
0 0.1214775214687992 0.3976655510161751 -0.1023344489838249 0.3785224785312008
0 0.2447785518123665 0.41431458153084 -0.08568541846916003 0.2552214481876335
0 0.626023322242332 0.126124807490152 -0.373875192509848 -0.126023322242332
0 0.7259530374383548 0.2009112032818488 -0.2990887967181512 -0.2259530374383548
0 0.7461489856452912 0.5369279314250847 0.0369279314250847 -0.2461489856452912
0 0.8338926062165161 0.6429367568158461 0.1429367568158461 -0.3338926062165161
0 0.7617981543972566 0.7488351310431732 0.2488351310431733 -0.2617981543972566
0 0.2573541258441202 0.5306374309545819 0.03063743095458191 0.2426458741558798
0 0.2013885183848222 0.6390235778192743 0.1390235778192743 0.2986114816151778
0 0.2107970252147544 0.765460422334703 0.2654604223347031 0.2892029747852456
0 0.564727246207252 0.8878891209350198 0.3878891209350198 -0.06472724620725205
0 0.5444771895988473 0.7600365794763007 0.2600365794763007 -0.04447718959884731
0 0.4467812400011181 0.8620860032393741 0.3620860032393741 0.05321875999888187
0 0.4225433458694008 0.743749242007236 0.243749242007236 0.07745665413059914
0 0.3155954016383524 0.6930816341742501 0.1930816341742501 0.1844045983616476
0 0.6390033431913598 0.7073620759991047 0.2073620759991047 -0.1390033431913597
0 0.5731680308903874 0.6628808424205641 0.1628808424205641 -0.07316803089038737
0 0.3615981604218232 0.3896282159640319 -0.1103717840359681 0.1384018395781768
0 0.6696242990737054 0.5555336554378739 0.0555336554378739 -0.1696242990737053
0 0.3293742063391074 0.5455916181376671 0.04559161813766714 0.1706257936608926
0 0.4230706505213407 0.6586816150810469 0.1586816150810469 0.07692934947865931
0 0.369104866069522 0.1199427213821458 -0.3800572786178542 0.130895133930478
0 0.7128425766800172 0.632936374298614 0.132936374298614 -0.2128425766800172
0 0.2909875635888589 0.6085117729629881 0.1085117729629881 0.2090124364111411
2 5 1 1
241
-5.551115123125781e-17 0.4999999999999998 0.4999999999999999 -8.82230796353919e-17 1.566207481167631e-16
3 1 0 50
272
273
274
275
276
277
278
279
280
281
282
283
284
285
286
287
288
289
290
291
292
293
294
295
296
297
298
299
300
301
302
303
304
305
306
307
308
309
310
311
312
313
314
315
316
317
318
319
320
321
0.4955191134563174 0.5000005669373152 0.4999861215911035
0.7124509218108674 0.4655322705950177 0.2989331592782807
0.2837067703915779 0.4655322705950177 0.2989331592782807
0.7143795246273603 0.7122643794667798 0.4458838601116552
0.2861786128957825 0.3136006801044278 0.5963912081699179
0.2854619160060568 0.7122528790948628 0.4455900562965543
0.6667980397725879 0.4435796354199988 0.7206573577462132
0.3404258274274703 0.5543863682642893 0.7264524600381963
0.7225842853561032 0.2763358037231805 0.504086096322738
0.5410365863702277 0.7132667263218694 0.6347167321092972
0.5105388997572833 0.6208495936023444 0.274960469485832
0.4663953120168597 0.2582673213867774 0.4250451699249952
0.7751142208818712 0.6657638585297303 0.7012461162745118
0.5103106873044583 0.2759344661040231 0.662303525434029
0.2248732692550082 0.2547099673391787 0.3792811744544676
0.7771434376210516 0.5012462093812196 0.5187411559877817
0.5022305186764965 0.3948245779401517 0.2459805894041583
0.8016813856395977 0.6486052337988298 0.23724550094275
0.2103945296666914 0.5211279511864988 0.543029406046536
0.4947248091457171 0.7750972297363152 0.4297179444943138
0.1973030113392073 0.6488840450916726 0.2371996824498287
0.8047998346846124 0.2712180065407493 0.3072176872566061
0.2890677853051415 0.7509601543469042 0.6568168610762545
0.8143733412404247 0.2528695271247936 0.6856322787492303
0.1994265724386442 0.3931103505844317 0.7762136289384917
0.1654980559196282 0.3588110644377145 0.2113429155416273
0.8361694839845234 0.4537334811065187 0.1675213132701604
0.5238493724566354 0.554167375910586 0.80813279424316
0.8165306619679302 0.8103058773430398 0.5785788979766742
0.1672090471076743 0.1782603895168769 0.5678819806332986
0.3944398392442272 0.3753553304389352 0.7852529570204658
0.6130753081349395 0.2452811397264432 0.2993076595986245
0.3415812807404614 0.3024033046682922 0.2310108128884037
0.7773285151691474 0.5376579936475097 0.830771681771297
0.8484828762876069 0.8022892342496104 0.3881446755732276
0.3497257625256654 0.1610280662855121 0.5216551609403576
0.1513870320371344 0.8022892342496104 0.3881446755732276
0.1875093334361199 0.6186506360668824 0.8108373196979597
0.3815898785062351 0.5478123886076294 0.1699144169066638
0.4225493716725008 0.709522405619164 0.7697746913569949
0.6255130873924026 0.5426113198180291 0.1651222616268385
0.3769378079009517 0.749675078674124 0.2879636609260525
0.8393500719764461 0.3735766972133712 0.8131557914532284
0.1710959150606169 0.8328993544480757 0.5571916746100984
0.6210770603219401 0.7653083855922451 0.2973295388745592
0.1523533589837602 0.5126476252243938 0.1612773995912517
0.643572383856004 0.8314288752792349 0.5542333971382497
0.3541919231539061 0.3978742156616621 0.4513300454922061
0.1593169706835339 0.4146185718100993 0.4125586581383026
0.3879928313423133 0.628168295070651 0.5684389595863834
$EndNodes
$Elements
13 1489 1 1489
0 2 15 1
479 1 
0 3 15 1
480 2 
0 4 15 1
481 3 
1 1 1 7
482 3 4 
483 4 5 
484 5 6 
485 6 7 
486 7 8 
487 8 9 
488 9 3 
1 2 1 19
489 1 10 
490 10 11 
491 11 12 
492 12 13 
493 13 14 
494 14 15 
495 15 16 
496 16 17 
497 17 18 
498 18 19 
499 19 20 
500 20 21 
501 21 22 
502 22 23 
503 23 24 
504 24 25 
505 25 26 
506 26 27 
507 27 1 
1 3 1 6
508 2 28 
509 28 29 
510 29 30 
511 30 31 
512 31 32 
513 32 1 
1 4 1 19
514 2 33 
515 33 34 
516 34 35 
517 35 36 
518 36 37 
519 37 38 
520 38 39 
521 39 40 
522 40 41 
523 41 42 
524 42 43 
525 43 44 
526 44 45 
527 45 46 
528 46 47 
529 47 48 
530 48 49 
531 49 50 
532 50 2 
2 1 2 276
1 1 158 10 
2 27 160 1 
3 32 158 1 
4 1 160 32 
5 28 159 2 
6 2 161 28 
7 33 161 2 
8 2 159 50 
9 10 134 11 
10 10 158 134 
11 11 155 12 
12 134 155 11 
13 12 56 13 
14 12 155 56 
15 13 157 14 
16 56 157 13 
17 14 59 15 
18 14 157 59 
19 15 125 16 
20 59 125 15 
21 16 124 17 
22 16 125 124 
23 17 55 18 
24 17 124 55 
25 18 151 19 
26 55 151 18 
27 19 58 20 
28 19 151 58 
29 20 131 21 
30 58 131 20 
31 21 122 22 
32 21 131 122 
33 22 51 23 
34 22 122 51 
35 23 150 24 
36 51 150 23 
37 24 60 25 
38 24 150 60 
39 25 152 26 
40 60 152 25 
41 26 68 27 
42 26 152 68 
43 68 160 27 
44 29 66 28 
45 28 140 29 
46 66 159 28 
47 28 161 140 
48 29 64 30 
49 30 69 29 
50 29 140 64 
51 29 69 66 
52 31 63 30 
53 30 89 31 
54 63 69 30 
55 64 89 30 
56 31 65 32 
57 32 139 31 
58 31 139 63 
59 31 89 65 
60 65 158 32 
61 32 160 139 
62 34 67 33 
63 67 161 33 
64 35 130 34 
65 34 130 67 
66 36 62 35 
67 62 130 35 
68 37 129 36 
69 36 129 62 
70 38 53 37 
71 53 129 37 
72 39 126 38 
73 38 126 53 
74 40 132 39 
75 39 132 126 
76 41 61 40 
77 61 132 40 
78 42 127 41 
79 41 127 61 
80 43 52 42 
81 52 127 42 
82 44 128 43 
83 43 128 52 
84 45 123 44 
85 123 128 44 
86 46 57 45 
87 57 123 45 
88 47 156 46 
89 46 156 57 
90 48 54 47 
91 54 156 47 
92 49 154 48 
93 48 154 54 
94 50 135 49 
95 135 154 49 
96 50 159 135 
97 51 118 109 
98 109 150 51 
99 51 144 118 
100 122 144 51 
101 52 133 127 
102 128 142 52 
103 52 142 133 
104 126 143 53 
105 53 164 129 
106 143 164 53 
107 54 86 75 
108 75 88 54 
109 54 154 86 
110 88 156 54 
111 55 117 116 
112 116 151 55 
113 55 148 117 
114 124 148 55 
115 107 119 56 
116 56 155 107 
117 119 120 56 
118 120 157 56 
119 57 88 79 
120 79 145 57 
121 57 156 88 
122 57 145 123 
123 58 116 113 
124 113 147 58 
125 58 151 116 
126 58 147 131 
127 120 121 59 
128 59 157 120 
129 121 146 59 
130 59 146 125 
131 60 108 87 
132 87 152 60 
133 60 109 108 
134 60 150 109 
135 127 136 61 
136 61 141 132 
137 136 141 61 
138 62 149 95 
139 95 153 62 
140 129 149 62 
141 62 153 130 
142 63 70 69 
143 63 71 70 
144 63 139 71 
145 64 90 89 
146 64 91 90 
147 64 140 91 
148 89 106 65 
149 106 134 65 
150 134 158 65 
151 69 110 66 
152 110 135 66 
153 135 159 66 
154 67 130 91 
155 91 140 67 
156 140 161 67 
157 68 87 71 
158 71 139 68 
159 68 152 87 
160 139 160 68 
161 70 110 69 
162 71 72 70 
163 72 73 70 
164 73 110 70 
165 71 87 72 
166 72 74 73 
167 72 108 74 
168 87 108 72 
169 74 75 73 
170 75 86 73 
171 86 110 73 
172 74 76 75 
173 74 77 76 
174 74 108 77 
175 76 88 75 
176 77 78 76 
177 78 79 76 
178 79 88 76 
179 77 118 78 
180 108 109 77 
181 109 118 77 
182 78 80 79 
183 78 81 80 
184 78 118 81 
185 80 145 79 
186 81 82 80 
187 82 83 80 
188 83 145 80 
189 81 85 82 
190 81 144 85 
191 118 144 81 
192 82 84 83 
193 82 111 84 
194 85 111 82 
195 84 142 83 
196 83 128 123 
197 123 145 83 
198 83 142 128 
199 111 112 84 
200 112 163 84 
201 84 163 142 
202 85 147 111 
203 122 131 85 
204 85 144 122 
205 131 147 85 
206 86 135 110 
207 86 154 135 
208 90 106 89 
209 91 92 90 
210 92 93 90 
211 93 106 90 
212 91 153 92 
213 130 153 91 
214 92 94 93 
215 92 95 94 
216 92 153 95 
217 94 119 93 
218 93 107 106 
219 93 119 107 
220 95 96 94 
221 96 97 94 
222 97 119 94 
223 95 149 96 
224 96 98 97 
225 96 99 98 
226 96 149 99 
227 98 121 97 
228 97 120 119 
229 97 121 120 
230 99 100 98 
231 100 101 98 
232 101 121 98 
233 99 143 100 
234 99 164 143 
235 149 164 99 
236 100 102 101 
237 100 103 102 
238 100 143 103 
239 102 105 101 
240 105 146 101 
241 101 146 121 
242 103 104 102 
243 104 137 102 
244 102 137 105 
245 103 141 104 
246 126 132 103 
247 103 143 126 
248 132 141 103 
249 104 138 137 
250 104 162 138 
251 141 162 104 
252 124 125 105 
253 105 148 124 
254 125 146 105 
255 137 148 105 
256 107 134 106 
257 107 155 134 
258 111 113 112 
259 111 147 113 
260 113 114 112 
261 114 115 112 
262 115 163 112 
263 113 116 114 
264 114 138 115 
265 116 117 114 
266 117 138 114 
267 115 136 133 
268 133 163 115 
269 115 162 136 
270 138 162 115 
271 137 138 117 
272 117 148 137 
273 133 136 127 
274 129 164 149 
275 142 163 133 
276 136 162 141 
2 2 2 77
277 10 167 1 
278 1 181 27 
279 167 181 1 
280 11 184 10 
281 10 184 167 
282 12 194 11 
283 11 194 184 
284 13 172 12 
285 172 194 12 
286 14 190 13 
287 13 190 172 
288 15 166 14 
289 166 190 14 
290 16 189 15 
291 15 189 166 
292 17 170 16 
293 170 189 16 
294 18 188 17 
295 17 188 170 
296 19 186 18 
297 186 188 18 
298 20 168 19 
299 168 186 19 
300 21 191 20 
301 20 191 168 
302 22 169 21 
303 169 191 21 
304 23 173 22 
305 22 173 169 
306 24 165 23 
307 165 173 23 
308 25 192 24 
309 24 192 165 
310 26 171 25 
311 171 192 25 
312 27 181 26 
313 26 181 171 
314 165 174 173 
315 165 183 174 
316 165 192 183 
317 182 185 166 
318 166 189 182 
319 185 190 166 
320 167 180 179 
321 179 181 167 
322 167 184 180 
323 175 187 168 
324 168 191 175 
325 168 187 186 
326 173 174 169 
327 174 175 169 
328 175 191 169 
329 182 189 170 
330 170 193 182 
331 188 193 170 
332 181 183 171 
333 183 192 171 
334 172 185 180 
335 180 194 172 
336 172 190 185 
337 174 176 175 
338 174 183 176 
339 176 177 175 
340 177 187 175 
341 176 178 177 
342 176 179 178 
343 176 183 179 
344 178 182 177 
345 182 193 177 
346 177 193 187 
347 179 180 178 
348 180 185 178 
349 178 185 182 
350 179 183 181 
351 184 194 180 
352 187 188 186 
353 187 193 188 
2 3 2 77
533 33 2 244 
534 2 50 258 
535 244 2 258 
536 34 33 261 
537 33 244 261 
538 35 34 271 
539 34 261 271 
540 36 35 249 
541 249 35 271 
542 37 36 267 
543 36 249 267 
544 38 37 243 
545 243 37 267 
546 39 38 266 
547 38 243 266 
548 40 39 247 
549 247 39 266 
550 41 40 265 
551 40 247 265 
552 42 41 263 
553 263 41 265 
554 43 42 245 
555 245 42 263 
556 44 43 268 
557 43 245 268 
558 45 44 246 
559 246 44 268 
560 46 45 250 
561 45 246 250 
562 47 46 242 
563 242 46 250 
564 48 47 269 
565 47 242 269 
566 49 48 248 
567 248 48 269 
568 50 49 258 
569 49 248 258 
570 242 250 251 
571 242 251 260 
572 242 260 269 
573 259 243 262 
574 243 259 266 
575 262 243 267 
576 244 256 257 
577 256 244 258 
578 244 257 261 
579 252 245 264 
580 245 252 268 
581 245 263 264 
582 250 246 251 
583 251 246 252 
584 252 246 268 
585 259 247 266 
586 247 259 270 
587 265 247 270 
588 258 248 260 
589 260 248 269 
590 249 257 262 
591 257 249 271 
592 249 262 267 
593 251 252 253 
594 251 253 260 
595 253 252 254 
596 254 252 264 
597 253 254 255 
598 253 255 256 
599 253 256 260 
600 255 254 259 
601 259 254 270 
602 254 264 270 
603 256 255 257 
604 257 255 262 
605 255 259 262 
606 256 258 260 
607 261 257 271 
608 264 263 265 
609 264 265 270 
2 4 2 118
354 4 211 196 
355 200 211 4 
356 199 213 3 
357 3 213 200 
358 36 225 35 
359 48 222 47 
360 208 225 36 
361 47 222 207 
362 199 214 213 
363 228 230 201 
364 225 226 35 
365 48 223 222 
366 215 234 218 
367 33 229 2 
368 232 239 223 
369 203 229 33 
370 199 215 214 
371 212 213 202 
372 37 208 36 
373 47 207 46 
374 39 206 38 
375 45 205 44 
376 50 204 49 
377 34 203 33 
378 42 202 41 
379 212 220 211 
380 218 234 195 
381 204 232 223 
382 211 220 205 
383 196 211 210 
384 221 239 235 
385 202 219 212 
386 229 230 228 
387 39 216 206 
388 215 218 206 
389 198 237 231 
390 2 229 227 
391 205 220 44 
392 50 227 204 
393 207 209 46 
394 37 217 208 
395 204 223 49 
396 34 226 203 
397 45 209 205 
398 206 217 38 
399 201 233 228 
400 200 212 211 
401 202 238 41 
402 42 219 202 
403 200 213 212 
404 222 239 221 
405 6 201 7 
406 3 200 4 
407 9 199 3 
408 5 197 6 
409 7 198 8 
410 4 196 5 
411 8 195 9 
412 40 216 39 
413 223 239 222 
414 207 221 210 
415 210 221 196 
416 218 224 208 
417 195 224 218 
418 207 210 209 
419 217 218 208 
420 213 214 202 
421 231 237 230 
422 206 216 215 
423 44 220 43 
424 214 238 202 
425 2 227 50 
426 215 216 214 
427 49 223 48 
428 35 226 34 
429 46 209 45 
430 38 217 37 
431 199 234 215 
432 43 219 42 
433 219 220 212 
434 235 239 197 
435 227 228 204 
436 210 211 205 
437 207 222 221 
438 224 225 208 
439 41 238 40 
440 225 231 226 
441 227 229 228 
442 230 237 201 
443 203 231 230 
444 209 210 205 
445 206 218 217 
446 226 231 203 
447 228 233 232 
448 203 230 229 
449 228 232 204 
450 231 240 198 
451 224 240 225 
452 216 238 214 
453 43 220 219 
454 232 233 197 
455 195 236 224 
456 221 235 196 
457 201 237 7 
458 197 239 232 
459 196 235 5 
460 8 236 195 
461 5 235 197 
462 198 236 8 
463 7 237 198 
464 6 233 201 
465 197 233 6 
466 9 234 199 
467 195 234 9 
468 40 238 216 
469 225 240 231 
470 236 240 224 
471 198 240 236 
2 5 2 7
472 7 241 6 
473 6 241 5 
474 8 241 7 
475 5 241 4 
476 4 241 3 
477 9 241 8 
478 3 241 9 
3 1 4 880
610 273 280 272 303 
611 176 287 275 289 
612 59 190 166 280 
613 176 275 175 289 
614 280 283 97 285 
615 190 59 157 280 
616 97 280 121 283 
617 273 287 177 289 
618 253 277 290 292 
619 253 292 290 320 
620 98 97 121 283 
621 273 272 288 303 
622 280 283 272 303 
623 76 291 281 294 
624 190 280 157 295 
625 76 277 291 294 
626 253 252 277 292 
627 185 166 190 280 
628 281 284 278 287 
629 274 277 272 282 
630 272 281 278 287 
631 272 275 273 282 
632 177 287 273 293 
633 119 280 97 285 
634 277 294 76 315 
635 175 289 275 306 
636 193 177 273 293 
637 176 175 275 306 
638 253 277 252 308 
639 89 278 285 302 
640 273 275 272 287 
641 278 299 272 302 
642 273 272 280 287 
643 79 76 277 291 
644 272 275 281 287 
645 153 92 95 276 
646 76 281 74 294 
647 283 288 272 303 
648 278 272 285 302 
649 71 281 284 299 
650 93 285 106 295 
651 275 284 281 287 
652 275 287 176 300 
653 130 276 153 301 
654 278 287 305 314 
655 187 177 289 298 
656 252 277 292 308 
657 193 273 177 298 
658 117 273 148 298 
659 89 285 90 302 
660 272 280 278 285 
661 92 95 276 285 
662 271 296 130 301 
663 177 182 287 293 
664 148 273 293 298 
665 279 272 299 302 
666 106 285 278 295 
667 97 285 283 307 
668 273 289 177 298 
669 274 272 277 321 
670 121 283 280 303 
671 92 276 153 302 
672 148 273 117 303 
673 190 185 280 295 
674 274 319 272 321 
675 166 59 280 293 
676 290 292 274 320 
677 70 71 299 311 
678 278 280 272 287 
679 280 287 182 293 
680 276 272 279 302 
681 274 290 277 292 
682 96 97 98 307 
683 72 71 281 284 
684 153 276 130 296 
685 193 293 273 298 
686 130 296 276 301 
687 276 285 272 302 
688 277 282 274 313 
689 273 288 117 303 
690 272 283 280 285 
691 280 285 119 295 
692 92 285 276 302 
693 281 299 71 311 
694 179 305 287 314 
695 273 148 293 303 
696 71 299 284 305 
697 281 291 76 318 
698 93 119 285 295 
699 95 276 285 307 
700 76 74 281 318 
701 87 72 108 318 
702 59 146 280 293 
703 89 299 278 302 
704 272 278 281 299 
705 166 280 185 293 
706 97 283 98 307 
707 178 280 185 295 
708 275 282 272 291 
709 146 121 59 280 
710 107 93 106 295 
711 157 280 120 295 
712 182 280 178 287 
713 98 283 121 303 
714 153 276 296 302 
715 277 272 282 321 
716 275 287 273 289 
717 272 276 279 319 
718 76 74 75 294 
719 121 280 146 303 
720 180 287 295 314 
721 117 288 273 312 
722 248 154 294 315 
723 157 59 120 280 
724 182 185 178 280 
725 178 287 280 295 
726 275 272 281 291 
727 284 287 275 300 
728 273 275 289 316 
729 262 255 276 320 
730 278 295 287 314 
731 193 182 177 293 
732 280 293 146 303 
733 284 287 179 305 
734 153 276 95 301 
735 190 157 172 295 
736 277 282 291 321 
737 251 253 252 308 
738 257 296 271 301 
739 176 174 175 306 
740 120 97 119 280 
741 71 63 299 305 
742 274 288 272 319 
743 98 121 101 303 
744 274 282 272 288 
745 278 284 281 299 
746 273 282 275 316 
747 278 287 284 305 
748 290 294 277 315 
749 262 276 301 320 
750 177 182 178 287 
751 248 294 154 309 
752 74 294 281 311 
753 76 77 74 318 
754 276 290 279 319 
755 183 176 287 300 
756 282 289 273 312 
757 190 172 185 295 
758 273 272 282 288 
759 273 289 282 316 
760 276 255 290 320 
761 175 187 177 289 
762 180 179 287 314 
763 93 107 119 295 
764 182 166 185 293 
765 89 31 65 278 
766 273 298 117 312 
767 120 121 97 280 
768 187 193 177 298 
769 272 285 276 319 
770 262 255 257 276 
771 153 296 91 302 
772 281 294 291 321 
773 72 87 71 284 
774 273 287 280 293 
775 77 76 291 318 
776 119 97 94 285 
777 257 276 255 290 
778 137 117 288 303 
779 272 299 281 321 
780 183 287 284 300 
781 272 279 299 321 
782 279 319 290 321 
783 257 276 290 296 
784 137 148 117 303 
785 89 65 106 278 
786 272 319 279 321 
787 89 31 278 299 
788 260 290 294 309 
789 71 139 63 305 
790 74 73 294 311 
791 95 301 276 307 
792 264 252 254 292 
793 182 185 280 293 
794 272 291 282 321 
795 292 317 274 320 
796 69 29 279 299 
797 278 285 280 295 
798 106 295 278 314 
799 277 274 292 313 
800 260 294 290 315 
801 283 286 100 307 
802 144 118 275 306 
803 282 310 274 313 
804 143 100 286 307 
805 178 180 287 295 
806 262 276 257 301 
807 79 277 145 313 
808 29 66 69 279 
809 289 312 282 316 
810 136 297 274 317 
811 145 277 79 308 
812 31 65 278 305 
813 100 286 283 304 
814 291 294 277 321 
815 147 312 289 316 
816 56 172 157 295 
817 277 291 282 313 
818 171 284 152 300 
819 183 174 176 300 
820 120 59 121 280 
821 79 291 277 313 
822 136 274 310 317 
823 75 74 73 294 
824 122 191 169 289 
825 279 299 29 302 
826 54 294 154 315 
827 136 274 297 304 
828 188 124 170 298 
829 136 274 304 310 
830 144 275 118 316 
831 56 157 120 295 
832 65 106 278 314 
833 243 53 266 286 
834 29 296 279 302 
835 89 30 299 302 
836 126 266 286 297 
837 119 120 280 295 
838 66 69 279 311 
839 79 308 277 315 
840 29 279 296 309 
841 95 285 94 307 
842 106 93 90 285 
843 53 164 286 301 
844 78 77 76 291 
845 249 257 271 301 
846 261 130 271 296 
847 30 29 299 302 
848 280 287 278 295 
849 178 185 180 295 
850 143 286 100 304 
851 248 260 294 309 
852 111 312 147 316 
853 270 297 264 320 
854 53 286 243 301 
855 284 299 278 305 
856 136 304 162 310 
857 116 298 289 312 
858 29 296 28 309 
859 281 284 275 318 
860 266 132 247 297 
861 276 296 257 301 
862 189 125 166 293 
863 115 310 288 312 
864 268 128 246 292 
865 274 310 292 313 
866 130 153 62 301 
867 248 294 260 315 
868 118 275 306 318 
869 70 71 63 299 
870 148 293 124 298 
871 92 94 95 285 
872 124 293 170 298 
873 169 122 289 306 
874 144 306 275 316 
875 29 140 28 296 
876 266 53 126 286 
877 118 306 109 318 
878 92 153 91 302 
879 89 64 30 302 
880 79 78 76 291 
881 279 294 290 309 
882 272 283 285 319 
883 68 152 171 284 
884 58 186 168 298 
885 31 278 299 305 
886 131 191 122 289 
887 262 301 286 320 
888 31 299 63 305 
889 140 296 29 302 
890 188 55 124 298 
891 277 308 145 313 
892 162 138 115 288 
893 289 306 85 316 
894 266 126 132 297 
895 109 306 300 318 
896 122 85 289 306 
897 271 62 249 301 
898 282 288 274 310 
899 170 293 193 298 
900 275 118 316 318 
901 154 294 86 309 
902 178 180 179 287 
903 270 264 254 320 
904 152 284 87 300 
905 58 151 186 298 
906 153 130 91 296 
907 130 62 271 301 
908 280 273 293 303 
909 152 192 171 300 
910 162 288 115 310 
911 282 291 275 316 
912 123 246 292 308 
913 290 296 279 309 
914 291 316 118 318 
915 143 99 100 307 
916 66 279 29 309 
917 256 296 290 309 
918 58 289 116 298 
919 69 30 29 299 
920 148 124 55 298 
921 281 291 272 321 
922 62 153 95 301 
923 264 297 317 320 
924 138 288 117 312 
925 102 283 303 304 
926 260 256 290 309 
927 93 119 94 285 
928 65 278 305 314 
929 162 304 288 310 
930 279 290 276 296 
931 279 309 66 311 
932 79 80 291 313 
933 100 283 102 304 
934 83 308 292 313 
935 103 143 100 304 
936 83 123 292 308 
937 166 125 59 293 
938 66 110 69 311 
939 72 73 74 311 
940 267 53 243 301 
941 276 285 283 319 
942 286 301 276 320 
943 164 286 301 307 
944 72 74 281 311 
945 89 30 31 299 
946 103 286 143 304 
947 243 286 262 301 
948 116 289 58 312 
949 123 246 128 292 
950 31 63 139 305 
951 83 145 308 313 
952 256 257 290 296 
953 69 299 279 311 
954 144 85 306 316 
955 272 288 283 319 
956 188 170 193 298 
957 113 58 289 312 
958 54 86 154 294 
959 138 117 114 312 
960 143 286 164 307 
961 79 145 80 313 
962 130 261 67 296 
963 114 112 115 312 
964 279 299 281 311 
965 30 64 29 302 
966 118 51 109 306 
967 78 291 118 318 
968 281 299 279 321 
969 152 60 192 300 
970 168 289 58 298 
971 267 129 53 301 
972 78 77 291 318 
973 164 143 53 286 
974 83 145 123 308 
975 122 144 85 306 
976 292 310 142 313 
977 60 152 87 300 
978 138 137 117 288 
979 284 300 275 318 
980 155 184 194 314 
981 110 66 309 311 
982 102 303 288 304 
983 288 303 283 304 
984 81 118 291 316 
985 116 117 298 312 
986 261 271 257 296 
987 112 310 115 312 
988 113 289 147 312 
989 183 179 284 287 
990 79 57 308 315 
991 283 285 276 307 
992 95 94 96 307 
993 121 146 101 303 
994 263 265 127 317 
995 113 116 58 312 
996 257 255 256 290 
997 84 142 310 313 
998 281 279 311 321 
999 78 81 118 291 
1000 111 113 147 312 
1001 243 259 262 286 
1002 117 148 55 298 
1003 276 279 296 302 
1004 84 142 163 310 
1005 111 282 312 316 
1006 59 125 146 293 
1007 119 56 120 295 
1008 150 173 165 306 
1009 273 288 282 312 
1010 274 317 297 320 
1011 122 85 131 289 
1012 28 66 29 309 
1013 68 171 181 284 
1014 112 282 84 310 
1015 262 286 259 320 
1016 110 309 294 311 
1017 102 283 100 303 
1018 95 149 301 307 
1019 102 288 104 304 
1020 104 102 137 288 
1021 275 291 281 318 
1022 51 300 109 306 
1023 86 294 110 309 
1024 136 297 141 304 
1025 183 176 179 287 
1026 84 112 111 282 
1027 168 187 289 298 
1028 53 129 164 301 
1029 154 86 135 309 
1030 123 128 83 292 
1031 82 84 111 282 
1032 248 154 135 309 
1033 79 80 78 291 
1034 106 107 295 314 
1035 112 111 282 312 
1036 268 245 52 292 
1037 169 191 175 289 
1038 90 285 92 302 
1039 167 305 179 314 
1040 277 294 290 321 
1041 137 288 102 303 
1042 290 294 279 321 
1043 169 289 175 306 
1044 144 51 118 306 
1045 99 143 164 307 
1046 300 306 275 318 
1047 136 141 162 304 
1048 145 79 57 308 
1049 68 284 181 305 
1050 68 87 152 284 
1051 147 289 85 316 
1052 106 134 107 314 
1053 156 242 250 315 
1054 84 282 82 313 
1055 136 310 133 317 
1056 71 87 68 284 
1057 82 81 291 316 
1058 275 306 289 316 
1059 133 142 292 310 
1060 104 138 162 288 
1061 84 310 282 313 
1062 124 189 170 293 
1063 282 310 112 312 
1064 111 82 282 316 
1065 82 291 313 316 
1066 82 81 80 291 
1067 82 291 80 313 
1068 133 310 292 317 
1069 92 90 93 285 
1070 147 113 58 289 
1071 268 246 252 292 
1072 28 296 244 309 
1073 150 165 300 306 
1074 252 292 246 308 
1075 155 194 295 314 
1076 79 88 57 315 
1077 67 91 130 296 
1078 247 40 265 297 
1079 53 143 126 286 
1080 289 298 273 312 
1081 274 304 288 319 
1082 178 176 177 287 
1083 160 167 32 305 
1084 283 288 304 319 
1085 60 87 108 300 
1086 266 259 243 286 
1087 92 93 94 285 
1088 104 288 162 304 
1089 275 316 291 318 
1090 156 250 57 315 
1091 40 61 265 297 
1092 78 118 77 318 
1093 89 90 64 302 
1094 151 188 186 298 
1095 268 52 128 292 
1096 105 293 148 303 
1097 168 187 175 289 
1098 51 173 150 306 
1099 163 112 84 310 
1100 155 134 184 314 
1101 144 118 81 316 
1102 28 244 159 309 
1103 292 308 277 313 
1104 181 284 179 305 
1105 52 245 263 317 
1106 161 67 261 296 
1107 115 136 162 310 
1108 263 42 52 127 
1109 134 295 107 314 
1110 61 127 265 317 
1111 104 137 138 288 
1112 85 147 131 289 
1113 103 126 143 286 
1114 250 308 57 315 
1115 64 140 29 302 
1116 69 70 63 299 
1117 110 294 86 311 
1118 263 42 245 52 
1119 244 296 256 309 
1120 70 299 69 311 
1121 62 95 149 301 
1122 101 102 100 303 
1123 274 319 290 320 
1124 15 166 189 125 
1125 168 186 187 298 
1126 124 125 189 293 
1127 52 263 127 317 
1128 82 313 282 316 
1129 259 297 270 320 
1130 264 245 292 317 
1131 283 304 286 319 
1132 183 284 171 300 
1133 259 247 270 297 
1134 146 293 105 303 
1135 28 161 244 296 
1136 100 102 103 304 
1137 245 252 264 292 
1138 168 58 19 186 
1139 133 292 52 317 
1140 288 304 274 310 
1141 68 181 160 305 
1142 259 286 297 320 
1143 20 58 168 191 
1144 83 292 142 313 
1145 242 308 250 315 
1146 189 166 182 293 
1147 276 307 286 319 
1148 30 63 31 299 
1149 135 86 110 309 
1150 249 262 257 301 
1151 286 307 283 319 
1152 151 19 58 186 
1153 288 310 282 312 
1154 28 140 161 296 
1155 248 258 260 309 
1156 133 142 52 292 
1157 188 17 170 124 
1158 141 297 132 304 
1159 133 163 142 310 
1160 286 276 319 320 
1161 91 296 140 302 
1162 150 300 51 306 
1163 75 294 54 315 
1164 61 265 297 317 
1165 269 248 260 315 
1166 290 319 276 320 
1167 52 292 245 317 
1168 56 155 194 295 
1169 294 309 279 311 
1170 164 301 149 307 
1171 73 86 294 311 
1172 61 297 136 317 
1173 56 194 172 295 
1174 189 170 16 124 
1175 186 151 18 188 
1176 132 39 266 247 
1177 43 268 245 52 
1178 142 83 128 292 
1179 91 90 92 302 
1180 253 290 255 320 
1181 55 17 188 124 
1182 292 310 274 317 
1183 53 243 37 267 
1184 276 301 286 307 
1185 38 266 243 53 
1186 80 81 78 291 
1187 286 304 274 319 
1188 31 32 65 305 
1189 109 51 150 300 
1190 99 96 98 307 
1191 75 86 54 294 
1192 181 171 183 284 
1193 276 283 307 319 
1194 247 132 40 297 
1195 166 15 59 125 
1196 281 311 294 321 
1197 250 246 123 308 
1198 146 125 105 293 
1199 181 179 167 305 
1200 173 122 169 306 
1201 111 147 85 316 
1202 267 249 36 301 
1203 32 305 167 314 
1204 58 20 131 191 
1205 21 169 122 191 
1206 40 132 61 297 
1207 267 37 53 129 
1208 165 174 300 306 
1209 249 271 35 62 
1210 59 190 14 166 
1211 112 113 111 312 
1212 266 38 126 53 
1213 65 305 32 314 
1214 141 132 103 304 
1215 178 179 176 287 
1216 167 179 180 314 
1217 58 116 151 298 
1218 75 73 86 294 
1219 265 264 270 297 
1220 168 175 191 289 
1221 151 55 188 298 
1222 105 124 148 293 
1223 136 61 141 297 
1224 155 295 134 314 
1225 161 261 244 296 
1226 243 262 267 301 
1227 72 70 73 311 
1228 91 67 140 296 
1229 132 39 126 266 
1230 16 189 124 125 
1231 116 117 55 298 
1232 260 256 253 290 
1233 74 77 108 318 
1234 160 181 167 305 
1235 190 14 157 59 
1236 65 134 106 314 
1237 182 193 170 293 
1238 68 160 139 305 
1239 253 255 254 320 
1240 43 268 52 128 
1241 36 129 267 301 
1242 107 56 119 295 
1243 114 117 116 312 
1244 250 123 57 308 
1245 274 297 286 320 
1246 51 122 173 306 
1247 286 297 274 304 
1248 192 150 165 300 
1249 137 105 148 303 
1250 73 110 86 311 
1251 252 246 251 308 
1252 174 169 175 306 
1253 258 244 256 309 
1254 256 244 257 296 
1255 32 167 158 314 
1256 155 12 56 194 
1257 188 193 187 298 
1258 109 300 108 318 
1259 84 83 142 313 
1260 268 252 245 292 
1261 61 136 127 317 
1262 271 130 35 62 
1263 172 56 12 194 
1264 123 45 246 250 
1265 260 258 256 309 
1266 115 133 136 310 
1267 135 258 248 309 
1268 30 69 63 299 
1269 262 259 255 320 
1270 60 150 192 300 
1271 274 286 319 320 
1272 258 159 244 309 
1273 169 173 22 122 
1274 131 21 122 191 
1275 282 313 291 316 
1276 264 297 265 317 
1277 155 107 134 295 
1278 62 36 249 301 
1279 65 32 158 314 
1280 124 105 125 293 
1281 55 18 151 188 
1282 108 109 60 300 
1283 123 45 250 57 
1284 75 54 88 315 
1285 192 183 171 300 
1286 91 140 64 302 
1287 167 32 1 160 
1288 28 2 159 244 
1289 129 149 164 301 
1290 182 170 189 293 
1291 173 51 22 122 
1292 251 308 242 315 
1293 130 34 261 271 
1294 26 68 152 171 
1295 263 264 265 317 
1296 131 147 58 289 
1297 46 250 156 242 
1298 183 179 181 284 
1299 142 128 52 292 
1300 67 161 140 296 
1301 36 62 129 301 
1302 23 165 150 173 
1303 261 67 34 130 
1304 46 250 57 156 
1305 135 154 248 49 
1306 183 165 174 300 
1307 103 102 104 304 
1308 101 146 105 303 
1309 256 255 253 290 
1310 127 136 133 317 
1311 251 242 260 315 
1312 194 155 11 184 
1313 185 172 180 295 
1314 269 242 156 315 
1315 186 188 187 298 
1316 51 23 150 173 
1317 269 156 54 315 
1318 294 311 279 321 
1319 110 70 69 311 
1320 135 110 66 309 
1321 80 145 83 313 
1322 64 90 91 302 
1323 248 135 49 258 
1324 68 26 181 171 
1325 165 173 174 306 
1326 251 250 242 308 
1327 115 112 163 310 
1328 107 155 56 295 
1329 158 184 134 314 
1330 96 149 95 307 
1331 134 11 155 184 
1332 32 31 139 305 
1333 48 248 269 154 
1334 127 133 52 317 
1335 67 33 161 261 
1336 244 261 257 296 
1337 159 66 28 309 
1338 60 25 152 192 
1339 192 60 24 150 
1340 156 57 88 315 
1341 269 54 48 154 
1342 269 156 47 54 
1343 105 137 102 303 
1344 164 149 99 307 
1345 192 25 152 171 
1346 242 156 47 269 
1347 112 114 113 312 
1348 165 192 24 150 
1349 135 159 258 309 
1350 258 159 135 50 
1351 141 61 132 297 
1352 57 123 145 308 
1353 111 85 82 316 
1354 247 265 270 297 
1355 144 122 51 306 
1356 42 43 245 52 
1357 181 160 27 68 
1358 84 82 83 313 
1359 150 60 109 300 
1360 77 118 109 318 
1361 172 194 180 295 
1362 81 85 144 316 
1363 14 15 59 166 
1364 58 19 20 168 
1365 113 114 116 312 
1366 260 242 269 315 
1367 259 270 254 320 
1368 132 39 247 40 
1369 12 13 56 172 
1370 35 249 62 36 
1371 105 102 101 303 
1372 158 167 184 314 
1373 133 115 163 310 
1374 184 134 10 158 
1375 258 159 2 244 
1376 244 161 33 261 
1377 62 149 129 301 
1378 151 116 55 298 
1379 1 167 160 181 
1380 82 80 83 313 
1381 192 165 183 300 
1382 267 262 249 301 
1383 38 243 37 53 
1384 104 162 141 304 
1385 109 108 77 318 
1386 32 139 160 305 
1387 170 17 16 124 
1388 99 149 96 307 
1389 73 70 110 311 
1390 82 85 81 316 
1391 254 255 259 320 
1392 42 263 41 127 
1393 2 28 161 244 
1394 61 40 265 41 
1395 55 17 18 188 
1396 32 1 158 167 
1397 264 263 245 317 
1398 10 184 158 167 
1399 258 135 49 50 
1400 181 27 26 68 
1401 44 123 45 246 
1402 169 22 21 122 
1403 88 54 156 315 
1404 38 126 39 266 
1405 34 33 67 261 
1406 141 103 104 304 
1407 160 27 1 181 
1408 173 169 174 306 
1409 250 251 246 308 
1410 10 11 134 184 
1411 180 184 167 314 
1412 258 2 159 50 
1413 250 45 46 57 
1414 51 22 23 173 
1415 156 47 46 242 
1416 135 66 159 309 
1417 134 65 158 314 
1418 43 268 128 44 
1419 16 15 189 125 
1420 165 24 23 150 
1421 130 35 34 271 
1422 60 24 25 192 
1423 47 269 54 48 
1424 131 20 21 191 
1425 37 267 36 129 
1426 154 48 248 49 
1427 11 12 155 194 
1428 25 26 152 171 
1429 161 33 2 244 
1430 151 18 19 186 
1431 13 14 157 190 
1432 158 1 10 167 
1433 289 176 177 175 
1434 289 177 176 287 
1435 321 274 290 277 
1436 321 290 274 319 
1437 285 89 106 278 
1438 285 106 89 90 
1439 311 71 72 70 
1440 311 72 71 281 
1441 315 79 76 277 
1442 315 76 79 88 
1443 76 315 75 88 
1444 75 315 76 294 
1445 284 72 318 281 
1446 284 318 72 87 
1447 292 254 253 252 
1448 292 253 254 320 
1449 306 176 300 275 
1450 306 300 176 174 
1451 308 253 315 251 
1452 308 315 253 277 
1453 260 315 253 251 
1454 172 157 13 56 
1455 172 13 157 190 
1456 307 94 97 285 
1457 307 97 94 96 
1458 318 87 300 108 
1459 318 300 87 284 
1460 303 98 100 101 
1461 303 100 98 283 
1462 320 264 292 317 
1463 320 292 264 254 
1464 305 71 68 284 
1465 305 68 71 139 
1466 269 154 315 54 
1467 315 154 269 248 
1468 246 128 44 123 
1469 246 44 128 268 
1470 297 266 259 247 
1471 297 259 266 286 
1472 318 72 74 281 
1473 318 74 72 108 
1474 312 138 115 114 
1475 312 115 138 288 
1476 286 304 126 297 
1477 286 126 304 103 
1478 132 126 304 297 
1479 132 304 126 103 
1480 127 265 41 61 
1481 127 41 265 263 
1482 307 100 98 99 
1483 307 98 100 283 
1484 314 194 180 184 
1485 314 180 194 295 
1486 58 191 289 168 
1487 289 191 58 131 
1488 315 253 290 260 
1489 315 290 253 277 
$EndElements
